# Made in Blockbench 5.1.6
mtllib missile.mtl

o missile
v 0.11 0 -1.6875
v 0.09526 0.055 -1.6875
v 0.09526 0.055 1.1375
v 0.11 0 1.1375
v 0.09526 0.055 -1.6875
v 0.055 0.09526 -1.6875
v 0.055 0.09526 1.1375
v 0.09526 0.055 1.1375
v 0.055 0.09526 -1.6875
v 0 0.11 -1.6875
v 0 0.11 1.1375
v 0.055 0.09526 1.1375
v 0 0.11 -1.6875
v -0.055 0.09526 -1.6875
v -0.055 0.09526 1.1375
v 0 0.11 1.1375
v -0.055 0.09526 -1.6875
v -0.09526 0.055 -1.6875
v -0.09526 0.055 1.1375
v -0.055 0.09526 1.1375
v -0.09526 0.055 -1.6875
v -0.11 0 -1.6875
v -0.11 0 1.1375
v -0.09526 0.055 1.1375
v -0.11 0 -1.6875
v -0.09526 -0.055 -1.6875
v -0.09526 -0.055 1.1375
v -0.11 0 1.1375
v -0.09526 -0.055 -1.6875
v -0.055 -0.09526 -1.6875
v -0.055 -0.09526 1.1375
v -0.09526 -0.055 1.1375
v -0.055 -0.09526 -1.6875
v 0 -0.11 -1.6875
v 0 -0.11 1.1375
v -0.055 -0.09526 1.1375
v 0 -0.11 -1.6875
v 0.055 -0.09526 -1.6875
v 0.055 -0.09526 1.1375
v 0 -0.11 1.1375
v 0.055 -0.09526 -1.6875
v 0.09526 -0.055 -1.6875
v 0.09526 -0.055 1.1375
v 0.055 -0.09526 1.1375
v 0.09526 -0.055 -1.6875
v 0.11 0 -1.6875
v 0.11 0 1.1375
v 0.09526 -0.055 1.1375
v 0.11 0 1.1375
v 0.09526 0.055 1.1375
v 0.01039 0.006 1.6875
v 0.012 0 1.6875
v 0.09526 0.055 1.1375
v 0.055 0.09526 1.1375
v 0.006 0.01039 1.6875
v 0.01039 0.006 1.6875
v 0.055 0.09526 1.1375
v 0 0.11 1.1375
v 0 0.012 1.6875
v 0.006 0.01039 1.6875
v 0 0.11 1.1375
v -0.055 0.09526 1.1375
v -0.006 0.01039 1.6875
v 0 0.012 1.6875
v -0.055 0.09526 1.1375
v -0.09526 0.055 1.1375
v -0.01039 0.006 1.6875
v -0.006 0.01039 1.6875
v -0.09526 0.055 1.1375
v -0.11 0 1.1375
v -0.012 0 1.6875
v -0.01039 0.006 1.6875
v -0.11 0 1.1375
v -0.09526 -0.055 1.1375
v -0.01039 -0.006 1.6875
v -0.012 0 1.6875
v -0.09526 -0.055 1.1375
v -0.055 -0.09526 1.1375
v -0.006 -0.01039 1.6875
v -0.01039 -0.006 1.6875
v -0.055 -0.09526 1.1375
v 0 -0.11 1.1375
v 0 -0.012 1.6875
v -0.006 -0.01039 1.6875
v 0 -0.11 1.1375
v 0.055 -0.09526 1.1375
v 0.006 -0.01039 1.6875
v 0 -0.012 1.6875
v 0.055 -0.09526 1.1375
v 0.09526 -0.055 1.1375
v 0.01039 -0.006 1.6875
v 0.006 -0.01039 1.6875
v 0.09526 -0.055 1.1375
v 0.11 0 1.1375
v 0.012 0 1.6875
v 0.01039 -0.006 1.6875
v 0 0 -1.6875
v 0.09526 0.055 -1.6875
v 0.11 0 -1.6875
v 0.11 0 -1.6875
v 0 0 -1.6875
v 0.055 0.09526 -1.6875
v 0.09526 0.055 -1.6875
v 0.09526 0.055 -1.6875
v 0 0 -1.6875
v 0 0.11 -1.6875
v 0.055 0.09526 -1.6875
v 0.055 0.09526 -1.6875
v 0 0 -1.6875
v -0.055 0.09526 -1.6875
v 0 0.11 -1.6875
v 0 0.11 -1.6875
v 0 0 -1.6875
v -0.09526 0.055 -1.6875
v -0.055 0.09526 -1.6875
v -0.055 0.09526 -1.6875
v 0 0 -1.6875
v -0.11 0 -1.6875
v -0.09526 0.055 -1.6875
v -0.09526 0.055 -1.6875
v 0 0 -1.6875
v -0.09526 -0.055 -1.6875
v -0.11 0 -1.6875
v -0.11 0 -1.6875
v 0 0 -1.6875
v -0.055 -0.09526 -1.6875
v -0.09526 -0.055 -1.6875
v -0.09526 -0.055 -1.6875
v 0 0 -1.6875
v 0 -0.11 -1.6875
v -0.055 -0.09526 -1.6875
v -0.055 -0.09526 -1.6875
v 0 0 -1.6875
v 0.055 -0.09526 -1.6875
v 0 -0.11 -1.6875
v 0 -0.11 -1.6875
v 0 0 -1.6875
v 0.09526 -0.055 -1.6875
v 0.055 -0.09526 -1.6875
v 0.055 -0.09526 -1.6875
v 0 0 -1.6875
v 0.11 0 -1.6875
v 0.09526 -0.055 -1.6875
v 0.09526 -0.055 -1.6875
v 0.1012 0 -1.6375
v 0.1012 0 -1.0675
v 0.41 0 -1.2275
v 0.41 0 -1.5175
v 0 0.1012 -1.6375
v 0 0.1012 -1.0675
v 0 0.41 -1.2275
v 0 0.41 -1.5175
v -0.1012 0 -1.6375
v -0.1012 0 -1.0675
v -0.41 0 -1.2275
v -0.41 0 -1.5175
v 0 -0.1012 -1.6375
v 0 -0.1012 -1.0675
v 0 -0.41 -1.2275
v 0 -0.41 -1.5175
vt 0.4453125 0.8984375
vt 0.4453125 0.90625
vt 0.09375 0.90625
vt 0.09375 0.8984375
vt 0.3515625 0.8203125
vt 0.3515625 0.828125
vt 0 0.828125
vt 0 0.8203125
vt 0.484375 0.9765625
vt 0.484375 0.984375
vt 0.1328125 0.984375
vt 0.1328125 0.9765625
vt 0.1328125 0.96875
vt 0.1328125 0.9609375
vt 0.484375 0.9609375
vt 0.484375 0.96875
vt 0.171875 0.9296875
vt 0.171875 0.921875
vt 0.5234375 0.921875
vt 0.5234375 0.9296875
vt 0.09375 0.890625
vt 0.09375 0.8828125
vt 0.4453125 0.8828125
vt 0.4453125 0.890625
vt 0.125 1
vt 0.125 0.9921875
vt 0.4765625 0.9921875
vt 0.4765625 1
vt 0.1796875 0.953125
vt 0.1796875 0.9453125
vt 0.53125 0.9453125
vt 0.53125 0.953125
vt 0 0.859375
vt 0 0.8515625
vt 0.3515625 0.8515625
vt 0.3515625 0.859375
vt 0.3515625 0.8359375
vt 0.3515625 0.84375
vt 0 0.84375
vt 0 0.8359375
vt 0.3515625 0.8046875
vt 0.3515625 0.8125
vt 0 0.8125
vt 0 0.8046875
vt 0.4453125 0.8671875
vt 0.4453125 0.875
vt 0.09375 0.875
vt 0.09375 0.8671875
vt 0.0703125 0.7890625
vt 0.0699890625 0.796875
vt 0.00044375 0.79053984375
vt 0.0004796875 0.7890625
vt 0.2421875 0.7890625
vt 0.2418646875 0.796875
vt 0.172319609375 0.790539921875
vt 0.172354765625 0.7890625
vt 0.179365 0.77413953125
vt 0.1796875 0.78125
vt 0.109855390625 0.78125
vt 0.1098196875 0.780474453125
vt 0.1015625 0.78125
vt 0.09375 0.780927421875
vt 0.100084453125 0.711382421875
vt 0.1015625 0.711417421875
vt 0.0859375 0.796875
vt 0.078125 0.796551484375
vt 0.08446 0.727006640625
vt 0.0859375 0.727041953125
vt 0.09407265625 0.796875
vt 0.09375 0.7890625
vt 0.1635828125 0.7890625
vt 0.16361796875 0.790540625
vt 0.203125 0.78054765625
vt 0.2034484375 0.7734375
vt 0.27299375 0.77977265625
vt 0.2729578125 0.78054765625
vt 0.203125 0.7649225
vt 0.2034478125 0.7578125
vt 0.272992890625 0.764147578125
vt 0.272957734375 0.7649225
vt 0.0003225 0.78125
vt 0 0.7734375
vt 0.069832109375 0.7734375
vt 0.0698678125 0.774915078125
vt 0.18820203125 0.7109375
vt 0.1953125 0.711260078125
vt 0.188978046875 0.780805078125
vt 0.18820203125 0.780770078125
vt 0.1100775 0.6953125
vt 0.1171875 0.695636015625
vt 0.1108525 0.765180859375
vt 0.1100775 0.765145546875
vt 0.06998984375 0.7578125
vt 0.0703125 0.76492265625
vt 0.0004796875 0.76492265625
vt 0.00044453125 0.764146875
vt 0.0459375 0.868125
vt 0.0340296875 0.875
vt 0.0321875 0.8671875
vt 0.0321875 0.8671875
vt 0.03125 0.7362500000000001
vt 0.03125 0.75
vt 0.0234375 0.7421875
vt 0.0234375 0.7421875
vt 0.1328125 0.751875
vt 0.1328125 0.765625
vt 0.125 0.7578125
vt 0.125 0.7578125
vt 0.03953125 0.7362500000000001
vt 0.04640625 0.7481578125
vt 0.03953125 0.75
vt 0.03953125 0.75
vt 0.015625 0.9140625
vt 0.029375 0.9140625
vt 0.03125 0.921875
vt 0.03125 0.921875
vt 0 0.8984375
vt 0.01375 0.8984375
vt 0.015625 0.90625
vt 0.015625 0.90625
vt 0.140625 0.765625
vt 0.1525328125 0.75875
vt 0.15625 0.765625
vt 0.15625 0.765625
vt 0.0234375 0.90625
vt 0.0234375 0.8925
vt 0.03125 0.890625
vt 0.03125 0.890625
vt 0 0.890625
vt 0 0.876875
vt 0.0078125 0.875
vt 0.0078125 0.875
vt 0.0225 0.8828125
vt 0.015625 0.8709046874999999
vt 0.0234375 0.8671875
vt 0.0234375 0.8671875
vt 0.0146875 0.75
vt 0.0009375 0.75
vt 0.00875 0.7421875
vt 0.00875 0.7421875
vt 0.17875 0.765625
vt 0.165 0.765625
vt 0.1728125 0.7578125
vt 0.1728125 0.7578125
vt 0 1
vt 0 0.92875
vt 0.0390625 0.94875
vt 0.0390625 0.985
vt 0.0503125 0.9609375
vt 0.1215625 0.9609375
vt 0.1015625 1
vt 0.0653125 1
vt 0.0859375 0.875
vt 0.0859375 0.94625
vt 0.046875 0.92625
vt 0.046875 0.89
vt 0.1684375 0.953125
vt 0.0971875 0.953125
vt 0.1171875 0.9140625
vt 0.1534375 0.9140625
vn 0.9659135562739212 0.25886483308141095 0
vn 0.7071067811865476 0.7071067811865476 0
vn 0.25886483308141095 0.9659135562739212 0
vn -0.25886483308141095 0.9659135562739212 0
vn -0.7071067811865476 0.7071067811865476 0
vn -0.9659135562739212 0.25886483308141095 0
vn -0.9659135562739212 -0.25886483308141095 0
vn -0.7071067811865476 -0.7071067811865476 0
vn -0.25886483308141095 -0.9659135562739212 0
vn 0.25886483308141095 -0.9659135562739212 0
vn 0.7071067811865476 -0.7071067811865476 0
vn 0.9659135562739212 -0.25886483308141095 0
vn 0.9519173859892317 0.25511385944511417 0.16961783211221215
vn 0.6968609710666683 0.6968609710666683 0.16961596035762705
vn 0.2551140092300292 0.9519179448881683 0.1696144701800736
vn -0.25511385944511417 0.9519173859892317 0.16961783211221215
vn -0.6968609710666683 0.6968609710666683 0.16961596035762705
vn -0.9519179448881683 0.2551140092300292 0.1696144701800736
vn -0.9519173859892317 -0.25511385944511417 0.16961783211221215
vn -0.6968609710666683 -0.6968609710666683 0.16961596035762705
vn -0.2551140092300292 -0.9519179448881683 0.1696144701800736
vn 0.25511385944511417 -0.9519173859892317 0.16961783211221215
vn 0.6968609710666683 -0.6968609710666683 0.16961596035762705
vn 0.9519179448881683 -0.2551140092300292 0.1696144701800736
vn 0 0 -1
vn 0 0 -1
vn 0 0 -1
vn 0 0 -1
vn 0 0 -1
vn 0 0 -1
vn 0 0 -1
vn 0 0 -1
vn 0 0 -1
vn 0 0 -1
vn 0 0 -1
vn 0 0 -1
vn 0 1 0
vn -1 0 0
vn 0 -1 0
vn 1 0 0
usemtl m_364650ed-6601-3e9a-2058-d849926d48ad
f 1/1/1 2/2/1 3/3/1 4/4/1
f 5/5/2 6/6/2 7/7/2 8/8/2
f 9/9/3 10/10/3 11/11/3 12/12/3
f 13/13/4 14/14/4 15/15/4 16/16/4
f 17/17/5 18/18/5 19/19/5 20/20/5
f 21/21/6 22/22/6 23/23/6 24/24/6
f 25/25/7 26/26/7 27/27/7 28/28/7
f 29/29/8 30/30/8 31/31/8 32/32/8
f 33/33/9 34/34/9 35/35/9 36/36/9
f 37/37/10 38/38/10 39/39/10 40/40/10
f 41/41/11 42/42/11 43/43/11 44/44/11
f 45/45/12 46/46/12 47/47/12 48/48/12
f 49/49/13 50/50/13 51/51/13 52/52/13
f 53/53/14 54/54/14 55/55/14 56/56/14
f 57/57/15 58/58/15 59/59/15 60/60/15
f 61/61/16 62/62/16 63/63/16 64/64/16
f 65/65/17 66/66/17 67/67/17 68/68/17
f 69/69/18 70/70/18 71/71/18 72/72/18
f 73/73/19 74/74/19 75/75/19 76/76/19
f 77/77/20 78/78/20 79/79/20 80/80/20
f 81/81/21 82/82/21 83/83/21 84/84/21
f 85/85/22 86/86/22 87/87/22 88/88/22
f 89/89/23 90/90/23 91/91/23 92/92/23
f 93/93/24 94/94/24 95/95/24 96/96/24
f 97/97/25 98/98/25 99/99/25 100/100/25
f 101/101/26 102/102/26 103/103/26 104/104/26
f 105/105/27 106/106/27 107/107/27 108/108/27
f 109/109/28 110/110/28 111/111/28 112/112/28
f 113/113/29 114/114/29 115/115/29 116/116/29
f 117/117/30 118/118/30 119/119/30 120/120/30
f 121/121/31 122/122/31 123/123/31 124/124/31
f 125/125/32 126/126/32 127/127/32 128/128/32
f 129/129/33 130/130/33 131/131/33 132/132/33
f 133/133/34 134/134/34 135/135/34 136/136/34
f 137/137/35 138/138/35 139/139/35 140/140/35
f 141/141/36 142/142/36 143/143/36 144/144/36
f 145/145/37 146/146/37 147/147/37 148/148/37
f 149/149/38 150/150/38 151/151/38 152/152/38
f 153/153/39 154/154/39 155/155/39 156/156/39
f 157/157/40 158/158/40 159/159/40 160/160/40