# Made in Blockbench 5.2.0
mtllib mm1.mtl

o cylinder
v 0.000000 -0.000000 -1.687500
v 0.000000 0.000000 1.187500
v 0.018648 -0.093750 -1.687500
v 0.018648 -0.093750 1.187500
v 0.053105 -0.079477 -1.687500
v 0.053105 -0.079477 1.187500
v 0.079477 -0.053105 -1.687500
v 0.079477 -0.053105 1.187500
v 0.093750 -0.018648 -1.687500
v 0.093750 -0.018648 1.187500
v 0.093750 0.018648 -1.687500
v 0.093750 0.018648 1.187500
v 0.079477 0.053105 -1.687500
v 0.079477 0.053105 1.187500
v 0.053105 0.079477 -1.687500
v 0.053105 0.079477 1.187500
v 0.018648 0.093750 -1.687500
v 0.018648 0.093750 1.187500
v -0.018648 0.093750 -1.687500
v -0.018648 0.093750 1.187500
v -0.053105 0.079477 -1.687500
v -0.053105 0.079477 1.187500
v -0.079477 0.053105 -1.687500
v -0.079477 0.053105 1.187500
v -0.093750 0.018648 -1.687500
v -0.093750 0.018648 1.187500
v -0.093750 -0.018648 -1.687500
v -0.093750 -0.018648 1.187500
v -0.079477 -0.053105 -1.687500
v -0.079477 -0.053105 1.187500
v -0.053105 -0.079477 -1.687500
v -0.053105 -0.079477 1.187500
v -0.018648 -0.093750 -1.687500
v -0.018648 -0.093750 1.187500
vt 0.4273390625 0.52768125
vt 0.418725 0.53125
vt 0.4140625 0.5078125
vt 0.1577625 0.28125
vt 0.1670875 0.28125
vt 0.1670875 1
vt 0.1577625 1
vt 0.481225 0.484375
vt 0.4898390625 0.48794375
vt 0.4765625 0.5078125
vt 0.43393125 0.5210890625
vt 0.4273390625 0.52768125
vt 0.4140625 0.5078125
vt 0.234375 0.28125
vt 0.25 0.28125
vt 0.25 1
vt 0.234375 1
vt 0.4898390625 0.48794375
vt 0.49643125 0.4945359375
vt 0.4765625 0.5078125
vt 0.4375 0.512475
vt 0.43393125 0.5210890625
vt 0.4140625 0.5078125
vt 0.0047875 0.28125
vt 0.0141125 0.28125
vt 0.0141125 1
vt 0.0047875 1
vt 0.49643125 0.4945359375
vt 0.5 0.50315
vt 0.4765625 0.5078125
vt 0.4375 0.50315
vt 0.4375 0.512475
vt 0.4140625 0.5078125
vt 0.0141125 0.28125
vt 0.0234375 0.28125
vt 0.0234375 1
vt 0.0141125 1
vt 0.5 0.50315
vt 0.5 0.512475
vt 0.4765625 0.5078125
vt 0.43393125 0.4945359375
vt 0.4375 0.50315
vt 0.4140625 0.5078125
vt 0.0234375 0.28125
vt 0.0327625 0.28125
vt 0.0327625 1
vt 0.0234375 1
vt 0.5 0.512475
vt 0.49643125 0.5210890625
vt 0.4765625 0.5078125
vt 0.4273390625 0.48794375
vt 0.43393125 0.4945359375
vt 0.4140625 0.5078125
vt 0.0327625 0.28125
vt 0.0420875 0.28125
vt 0.0420875 1
vt 0.0327625 1
vt 0.49643125 0.5210890625
vt 0.4898390625 0.52768125
vt 0.4765625 0.5078125
vt 0.418725 0.484375
vt 0.4273390625 0.48794375
vt 0.4140625 0.5078125
vt 0.18913750000000001 0.28125
vt 0.1984625 0.28125
vt 0.1984625 1
vt 0.18913750000000001 1
vt 0.4898390625 0.52768125
vt 0.481225 0.53125
vt 0.4765625 0.5078125
vt 0.4094 0.484375
vt 0.418725 0.484375
vt 0.4140625 0.5078125
vt 0.1984625 0.28125
vt 0.2077875 0.28125
vt 0.2077875 1
vt 0.1984625 1
vt 0.481225 0.53125
vt 0.4719 0.53125
vt 0.4765625 0.5078125
vt 0.4007859375 0.48794375
vt 0.4094 0.484375
vt 0.4140625 0.5078125
vt 0.2077875 0.28125
vt 0.21711249999999999 0.28125
vt 0.21711249999999999 1
vt 0.2077875 1
vt 0.4719 0.53125
vt 0.4632859375 0.52768125
vt 0.4765625 0.5078125
vt 0.39419375 0.4945359375
vt 0.4007859375 0.48794375
vt 0.4140625 0.5078125
vt 0.0672875 0.28125
vt 0.0766125 0.28125
vt 0.0766125 1
vt 0.0672875 1
vt 0.4632859375 0.52768125
vt 0.45669375 0.5210890625
vt 0.4765625 0.5078125
vt 0.390625 0.50315
vt 0.39419375 0.4945359375
vt 0.4140625 0.5078125
vt 0.0766125 0.28125
vt 0.0859375 0.28125
vt 0.0859375 1
vt 0.0766125 1
vt 0.45669375 0.5210890625
vt 0.453125 0.512475
vt 0.4765625 0.5078125
vt 0.390625 0.512475
vt 0.390625 0.50315
vt 0.4140625 0.5078125
vt 0.0859375 0.28125
vt 0.0952625 0.28125
vt 0.0952625 1
vt 0.0859375 1
vt 0.453125 0.512475
vt 0.453125 0.50315
vt 0.4765625 0.5078125
vt 0.39419375 0.5210890625
vt 0.390625 0.512475
vt 0.4140625 0.5078125
vt 0.0952625 0.28125
vt 0.1045875 0.28125
vt 0.1045875 1
vt 0.0952625 1
vt 0.453125 0.50315
vt 0.45669375 0.4945359375
vt 0.4765625 0.5078125
vt 0.4007859375 0.52768125
vt 0.39419375 0.5210890625
vt 0.4140625 0.5078125
vt 0.1297875 0.28125
vt 0.1391125 0.28125
vt 0.1391125 1
vt 0.1297875 1
vt 0.45669375 0.4945359375
vt 0.4632859375 0.48794375
vt 0.4765625 0.5078125
vt 0.4094 0.53125
vt 0.4007859375 0.52768125
vt 0.4140625 0.5078125
vt 0.1391125 0.28125
vt 0.1484375 0.28125
vt 0.1484375 1
vt 0.1391125 1
vt 0.4632859375 0.48794375
vt 0.4719 0.484375
vt 0.4765625 0.5078125
vt 0.418725 0.53125
vt 0.4094 0.53125
vt 0.4140625 0.5078125
vt 0.1484375 0.28125
vt 0.1577625 0.28125
vt 0.1577625 1
vt 0.1484375 1
vt 0.4719 0.484375
vt 0.481225 0.484375
vt 0.4765625 0.5078125
vn 0 -2.220446049250313e-16 -1
vn 0.38268343236508984 -0.9238795325112867 2.0514246579479128e-16
vn 0 2.220446049250313e-16 1
vn 0 -2.220446049250313e-16 -1
vn 0.7071067811865475 -0.7071067811865478 1.5700924586837757e-16
vn 0 2.220446049250313e-16 1
vn 0 -2.220446049250313e-16 -1
vn 0.9238795325112867 -0.3826834323650898 8.49727915508613e-17
vn 0 2.220446049250313e-16 1
vn 0 -2.220446049250313e-16 -1
vn 1 0 0
vn 0 2.220446049250313e-16 1
vn 0 -2.220446049250313e-16 -1
vn 0.923879532511287 0.3826834323650894 -8.497279155086121e-17
vn 0 2.220446049250313e-16 1
vn 0 -2.220446049250313e-16 -1
vn 0.7071067811865477 0.7071067811865475 -1.570092458683775e-16
vn 0 2.220446049250313e-16 1
vn 0 -2.220446049250313e-16 -1
vn 0.3826834323650898 0.9238795325112867 -2.0514246579479128e-16
vn 0 2.220446049250313e-16 1
vn 0 -2.220446049250313e-16 -1
vn 0 1 -2.220446049250313e-16
vn 0 2.220446049250313e-16 1
vn 0 -2.220446049250313e-16 -1
vn -0.3826834323650895 0.9238795325112868 -2.051424657947913e-16
vn 0 2.220446049250313e-16 1
vn 0 -2.220446049250313e-16 -1
vn -0.7071067811865477 0.7071067811865475 -1.570092458683775e-16
vn 0 2.220446049250313e-16 1
vn 0 -2.220446049250313e-16 -1
vn -0.9238795325112867 0.38268343236508995 -8.497279155086134e-17
vn 0 2.220446049250313e-16 1
vn 0 -2.220446049250313e-16 -1
vn -1 3.7209787045103005e-16 -8.262232463774445e-32
vn 0 2.220446049250313e-16 1
vn 0 -2.220446049250313e-16 -1
vn -0.9238795325112868 -0.3826834323650895 8.497279155086124e-17
vn 0 2.220446049250313e-16 1
vn 0 -2.220446049250313e-16 -1
vn -0.7071067811865476 -0.7071067811865476 1.5700924586837752e-16
vn 0 2.220446049250313e-16 1
vn 0 -2.220446049250313e-16 -1
vn -0.38268343236508995 -0.9238795325112867 2.0514246579479128e-16
vn 0 2.220446049250313e-16 1
vn 0 -2.220446049250313e-16 -1
vn -3.7209787045103005e-16 -1 2.220446049250313e-16
vn 0 2.220446049250313e-16 1
usemtl m_71b3ea3d-e854-b286-8bf2-41e3c1a75b0a
f 5/1/1 3/2/1 1/3/1
f 3/4/2 5/5/2 6/6/2 4/7/2
f 4/8/3 6/9/3 2/10/3
f 7/11/4 5/12/4 1/13/4
f 5/14/5 7/15/5 8/16/5 6/17/5
f 6/18/6 8/19/6 2/20/6
f 9/21/7 7/22/7 1/23/7
f 7/24/8 9/25/8 10/26/8 8/27/8
f 8/28/9 10/29/9 2/30/9
f 11/31/10 9/32/10 1/33/10
f 9/34/11 11/35/11 12/36/11 10/37/11
f 10/38/12 12/39/12 2/40/12
f 13/41/13 11/42/13 1/43/13
f 11/44/14 13/45/14 14/46/14 12/47/14
f 12/48/15 14/49/15 2/50/15
f 15/51/16 13/52/16 1/53/16
f 13/54/17 15/55/17 16/56/17 14/57/17
f 14/58/18 16/59/18 2/60/18
f 17/61/19 15/62/19 1/63/19
f 15/64/20 17/65/20 18/66/20 16/67/20
f 16/68/21 18/69/21 2/70/21
f 19/71/22 17/72/22 1/73/22
f 17/74/23 19/75/23 20/76/23 18/77/23
f 18/78/24 20/79/24 2/80/24
f 21/81/25 19/82/25 1/83/25
f 19/84/26 21/85/26 22/86/26 20/87/26
f 20/88/27 22/89/27 2/90/27
f 23/91/28 21/92/28 1/93/28
f 21/94/29 23/95/29 24/96/29 22/97/29
f 22/98/30 24/99/30 2/100/30
f 25/101/31 23/102/31 1/103/31
f 23/104/32 25/105/32 26/106/32 24/107/32
f 24/108/33 26/109/33 2/110/33
f 27/111/34 25/112/34 1/113/34
f 25/114/35 27/115/35 28/116/35 26/117/35
f 26/118/36 28/119/36 2/120/36
f 29/121/37 27/122/37 1/123/37
f 27/124/38 29/125/38 30/126/38 28/127/38
f 28/128/39 30/129/39 2/130/39
f 31/131/40 29/132/40 1/133/40
f 29/134/41 31/135/41 32/136/41 30/137/41
f 30/138/42 32/139/42 2/140/42
f 33/141/43 31/142/43 1/143/43
f 31/144/44 33/145/44 34/146/44 32/147/44
f 32/148/45 34/149/45 2/150/45
f 3/151/46 33/152/46 1/153/46
f 33/154/47 3/155/47 4/156/47 34/157/47
f 34/158/48 4/159/48 2/160/48
o cone
v 0.000000 0.000000 1.187500
v 0.000000 0.000000 1.687500
v 0.018648 -0.093750 1.187500
v 0.053105 -0.079477 1.187500
v 0.079477 -0.053105 1.187500
v 0.093750 -0.018648 1.187500
v 0.093750 0.018648 1.187500
v 0.079477 0.053105 1.187500
v 0.053105 0.079477 1.187500
v 0.018648 0.093750 1.187500
v -0.018648 0.093750 1.187500
v -0.053105 0.079477 1.187500
v -0.079477 0.053105 1.187500
v -0.093750 0.018648 1.187500
v -0.093750 -0.018648 1.187500
v -0.079477 -0.053105 1.187500
v -0.053105 -0.079477 1.187500
v -0.018648 -0.093750 1.187500
vt 0.5210890625 0.84018125
vt 0.512475 0.84375
vt 0.5078125 0.8203125
vt 0.449975 0.560321875
vt 0.4592749672609612 0.5610046882578164
vt 0.4453125 0.6875
vt 0.52768125 0.8335890625
vt 0.5210890625 0.84018125
vt 0.5078125 0.8203125
vt 0.4592749672609612 0.5610046882578164
vt 0.46849997070438215 0.5623666487817933
vt 0.4453125 0.6875
vt 0.53125 0.824975
vt 0.52768125 0.8335890625
vt 0.5078125 0.8203125
vt 0.2672875327390388 0.40475468825781635
vt 0.2765875 0.40407187499999997
vt 0.28125 0.53125
vt 0.53125 0.81565
vt 0.53125 0.824975
vt 0.5078125 0.8203125
vt 0.2765875 0.40407187499999997
vt 0.2859125 0.40407187499999997
vt 0.28125 0.53125
vt 0.52768125 0.8070359375
vt 0.53125 0.81565
vt 0.5078125 0.8203125
vt 0.2859125 0.40407187499999997
vt 0.2952124672609612 0.40475468825781635
vt 0.28125 0.53125
vt 0.5210890625 0.80044375
vt 0.52768125 0.8070359375
vt 0.5078125 0.8203125
vt 0.42212502929561785 0.7186166487817933
vt 0.4313500327390388 0.7172546882578164
vt 0.4453125 0.84375
vt 0.512475 0.796875
vt 0.5210890625 0.80044375
vt 0.5078125 0.8203125
vt 0.4313500327390388 0.7172546882578164
vt 0.44065 0.716571875
vt 0.4453125 0.84375
vt 0.50315 0.796875
vt 0.512475 0.796875
vt 0.5078125 0.8203125
vt 0.44065 0.716571875
vt 0.449975 0.716571875
vt 0.4453125 0.84375
vt 0.4945359375 0.80044375
vt 0.50315 0.796875
vt 0.5078125 0.8203125
vt 0.449975 0.716571875
vt 0.4592749672609612 0.7172546882578164
vt 0.4453125 0.84375
vt 0.48794375 0.8070359375
vt 0.4945359375 0.80044375
vt 0.5078125 0.8203125
vt 0.4592749672609612 0.7172546882578164
vt 0.46849997070438215 0.7186166487817933
vt 0.4453125 0.84375
vt 0.484375 0.81565
vt 0.48794375 0.8070359375
vt 0.5078125 0.8203125
vt 0.3141625327390388 0.40475468825781635
vt 0.3234625 0.40407187499999997
vt 0.328125 0.53125
vt 0.484375 0.824975
vt 0.484375 0.81565
vt 0.5078125 0.8203125
vt 0.3234625 0.40407187499999997
vt 0.3327875 0.40407187499999997
vt 0.328125 0.53125
vt 0.48794375 0.8335890625
vt 0.484375 0.824975
vt 0.5078125 0.8203125
vt 0.3327875 0.40407187499999997
vt 0.3420874672609612 0.40475468825781635
vt 0.328125 0.53125
vt 0.4945359375 0.84018125
vt 0.48794375 0.8335890625
vt 0.5078125 0.8203125
vt 0.42212502929561785 0.5623666487817933
vt 0.4313500327390388 0.5610046882578164
vt 0.4453125 0.6875
vt 0.50315 0.84375
vt 0.4945359375 0.84018125
vt 0.5078125 0.8203125
vt 0.4313500327390388 0.5610046882578164
vt 0.44065 0.560321875
vt 0.4453125 0.6875
vt 0.512475 0.84375
vt 0.50315 0.84375
vt 0.5078125 0.8203125
vt 0.44065 0.560321875
vt 0.449975 0.560321875
vt 0.4453125 0.6875
vn 0 -2.220446049250313e-16 -1
vn 0.37612890207220856 -0.9080554965832274 0.18428853505018555
vn 0 -2.220446049250313e-16 -1
vn 0.6949955884209108 -0.6949955884209112 0.18428853505018553
vn 0 -2.220446049250313e-16 -1
vn 0.9080554965832274 -0.3761289020722084 0.18428853505018544
vn 0 -2.220446049250313e-16 -1
vn 0.9828721869343219 4.092027495743119e-17 0.18428853505018536
vn 0 -2.220446049250313e-16 -1
vn 0.9080554965832276 0.3761289020722081 0.1842885350501853
vn 0 -2.220446049250313e-16 -1
vn 0.6949955884209111 0.6949955884209109 0.1842885350501852
vn 0 -2.220446049250313e-16 -1
vn 0.3761289020722085 0.9080554965832275 0.1842885350501852
vn 0 -2.220446049250313e-16 -1
vn 0 0.9828721869343221 0.18428853505018516
vn 0 -2.220446049250313e-16 -1
vn -0.3761289020722083 0.9080554965832277 0.1842885350501852
vn 0 -2.220446049250313e-16 -1
vn -0.6949955884209111 0.694995588420911 0.18428853505018522
vn 0 -2.220446049250313e-16 -1
vn -0.9080554965832274 0.3761289020722087 0.18428853505018528
vn 0 -2.220446049250313e-16 -1
vn -0.9828721869343219 4.066449226412391e-16 0.18428853505018536
vn 0 -2.220446049250313e-16 -1
vn -0.9080554965832275 -0.3761289020722081 0.18428853505018544
vn 0 -2.220446049250313e-16 -1
vn -0.694995588420911 -0.694995588420911 0.18428853505018553
vn 0 -2.220446049250313e-16 -1
vn -0.37612890207220867 -0.9080554965832274 0.18428853505018555
vn 0 -2.220446049250313e-16 -1
vn -3.6572464768380795e-16 -0.9828721869343219 0.18428853505018558
usemtl m_71b3ea3d-e854-b286-8bf2-41e3c1a75b0a
f 38/161/49 37/162/49 35/163/49
f 37/164/50 38/165/50 36/166/50
f 39/167/51 38/168/51 35/169/51
f 38/170/52 39/171/52 36/172/52
f 40/173/53 39/174/53 35/175/53
f 39/176/54 40/177/54 36/178/54
f 41/179/55 40/180/55 35/181/55
f 40/182/56 41/183/56 36/184/56
f 42/185/57 41/186/57 35/187/57
f 41/188/58 42/189/58 36/190/58
f 43/191/59 42/192/59 35/193/59
f 42/194/60 43/195/60 36/196/60
f 44/197/61 43/198/61 35/199/61
f 43/200/62 44/201/62 36/202/62
f 45/203/63 44/204/63 35/205/63
f 44/206/64 45/207/64 36/208/64
f 46/209/65 45/210/65 35/211/65
f 45/212/66 46/213/66 36/214/66
f 47/215/67 46/216/67 35/217/67
f 46/218/68 47/219/68 36/220/68
f 48/221/69 47/222/69 35/223/69
f 47/224/70 48/225/70 36/226/70
f 49/227/71 48/228/71 35/229/71
f 48/230/72 49/231/72 36/232/72
f 50/233/73 49/234/73 35/235/73
f 49/236/74 50/237/74 36/238/74
f 51/239/75 50/240/75 35/241/75
f 50/242/76 51/243/76 36/244/76
f 52/245/77 51/246/77 35/247/77
f 51/248/78 52/249/78 36/250/78
f 37/251/79 52/252/79 35/253/79
f 52/254/80 37/255/80 36/256/80
o mesh
v 0.003125 0.343750 -1.281250
v 0.003125 0.343750 -1.531250
v 0.003125 0.093750 -1.093750
v 0.003125 0.093750 -1.656250
v -0.003125 0.343750 -1.281250
v -0.003125 0.343750 -1.531250
v -0.003125 0.093750 -1.093750
v -0.003125 0.093750 -1.656250
vt 0.375 0.84375
vt 0.3125 0.84375
vt 0.265625 0.78125
vt 0.40625 0.78125
vt 0.40625 0.703125
vt 0.359375 0.765625
vt 0.296875 0.765625
vt 0.265625 0.703125
vt 0.546875 0.78125
vt 0.5625 0.78125
vt 0.5625 0.84375
vt 0.546875 0.84375
vt 0.5 0.640625
vt 0.5 0.78125
vt 0.484375 0.78125
vt 0.484375 0.640625
vt 0.40625 0.390625
vt 0.40625 0.46875
vt 0.390625 0.46875
vt 0.390625 0.390625
vt 0.5625 0.765625
vt 0.546875 0.765625
vt 0.546875 0.703125
vt 0.5625 0.703125
vn 1 0 0
vn -1 0 0
vn 0 1 0
vn 0 -1 0
vn 0 0.6 0.8
vn 0 0.447213595499958 -0.894427190999916
usemtl m_71b3ea3d-e854-b286-8bf2-41e3c1a75b0a
f 54/257/81 53/258/81 55/259/81 56/260/81
f 59/261/82 57/262/82 58/263/82 60/264/82
f 57/265/83 53/266/83 54/267/83 58/268/83
f 56/269/84 55/270/84 59/271/84 60/272/84
f 55/273/85 53/274/85 57/275/85 59/276/85
f 58/277/86 54/278/86 56/279/86 60/280/86
o mesh
v -0.343750 0.003125 -1.281250
v -0.343750 0.003125 -1.531250
v -0.093750 0.003125 -1.093750
v -0.093750 0.003125 -1.656250
v -0.343750 -0.003125 -1.281250
v -0.343750 -0.003125 -1.531250
v -0.093750 -0.003125 -1.093750
v -0.093750 -0.003125 -1.656250
vt 0.375 0.6875
vt 0.3125 0.6875
vt 0.265625 0.625
vt 0.40625 0.625
vt 0.40625 0.546875
vt 0.359375 0.609375
vt 0.296875 0.609375
vt 0.265625 0.546875
vt 0.546875 0.625
vt 0.5625 0.625
vt 0.5625 0.6875
vt 0.546875 0.6875
vt 0.53125 0.640625
vt 0.53125 0.78125
vt 0.515625 0.78125
vt 0.515625 0.640625
vt 0.4375 0.390625
vt 0.4375 0.46875
vt 0.421875 0.46875
vt 0.421875 0.390625
vt 0.5625 0.609375
vt 0.546875 0.609375
vt 0.546875 0.546875
vt 0.5625 0.546875
vn 2.220446049250313e-16 1 0
vn -2.220446049250313e-16 -1 0
vn -1 2.220446049250313e-16 0
vn 1 -2.220446049250313e-16 0
vn -0.6 1.3322676295501878e-16 0.8
vn -0.447213595499958 9.930136612989093e-17 -0.894427190999916
usemtl m_71b3ea3d-e854-b286-8bf2-41e3c1a75b0a
f 62/281/87 61/282/87 63/283/87 64/284/87
f 67/285/88 65/286/88 66/287/88 68/288/88
f 65/289/89 61/290/89 62/291/89 66/292/89
f 64/293/90 63/294/90 67/295/90 68/296/90
f 63/297/91 61/298/91 65/299/91 67/300/91
f 66/301/92 62/302/92 64/303/92 68/304/92
o mesh
v 0.343750 -0.003125 -1.281250
v 0.343750 -0.003125 -1.531250
v 0.093750 -0.003125 -1.093750
v 0.093750 -0.003125 -1.656250
v 0.343750 0.003125 -1.281250
v 0.343750 0.003125 -1.531250
v 0.093750 0.003125 -1.093750
v 0.093750 0.003125 -1.656250
vt 0.375 1
vt 0.3125 1
vt 0.265625 0.9375
vt 0.40625 0.9375
vt 0.40625 0.859375
vt 0.359375 0.921875
vt 0.296875 0.921875
vt 0.265625 0.859375
vt 0.484375 0.40625
vt 0.5 0.40625
vt 0.5 0.46875
vt 0.484375 0.46875
vt 0.375 0.390625
vt 0.375 0.53125
vt 0.359375 0.53125
vt 0.359375 0.390625
vt 0.5 0.546875
vt 0.5 0.625
vt 0.484375 0.625
vt 0.484375 0.546875
vt 0.53125 0.46875
vt 0.515625 0.46875
vt 0.515625 0.40625
vt 0.53125 0.40625
vn 2.220446049250313e-16 -1 0
vn -2.220446049250313e-16 1 0
vn 1 2.220446049250313e-16 0
vn -1 -2.220446049250313e-16 0
vn 0.6 1.3322676295501878e-16 0.8
vn 0.447213595499958 9.930136612989093e-17 -0.894427190999916
usemtl m_71b3ea3d-e854-b286-8bf2-41e3c1a75b0a
f 70/305/93 69/306/93 71/307/93 72/308/93
f 75/309/94 73/310/94 74/311/94 76/312/94
f 73/313/95 69/314/95 70/315/95 74/316/95
f 72/317/96 71/318/96 75/319/96 76/320/96
f 71/321/97 69/322/97 73/323/97 75/324/97
f 74/325/98 70/326/98 72/327/98 76/328/98
o mesh
v -0.003125 -0.343750 -1.281250
v -0.003125 -0.343750 -1.531250
v -0.003125 -0.093750 -1.093750
v -0.003125 -0.093750 -1.656250
v 0.003125 -0.343750 -1.281250
v 0.003125 -0.343750 -1.531250
v 0.003125 -0.093750 -1.093750
v 0.003125 -0.093750 -1.656250
vt 0.53125 1
vt 0.46875 1
vt 0.421875 0.9375
vt 0.5625 0.9375
vt 0.5625 0.859375
vt 0.515625 0.921875
vt 0.453125 0.921875
vt 0.421875 0.859375
vt 0.546875 0.46875
vt 0.5625 0.46875
vt 0.5625 0.53125
vt 0.546875 0.53125
vt 0.53125 0.484375
vt 0.53125 0.625
vt 0.515625 0.625
vt 0.515625 0.484375
vt 0.46875 0.390625
vt 0.46875 0.46875
vt 0.453125 0.46875
vt 0.453125 0.390625
vt 0.5625 0.453125
vt 0.546875 0.453125
vt 0.546875 0.390625
vt 0.5625 0.390625
vn -1 -1.2246467991473532e-16 0
vn 1 1.2246467991473532e-16 0
vn 1.2246467991473532e-16 -1 0
vn -1.2246467991473532e-16 1 0
vn 7.347880794884119e-17 -0.6 0.8
vn 5.476786982642027e-17 -0.447213595499958 -0.894427190999916
usemtl m_71b3ea3d-e854-b286-8bf2-41e3c1a75b0a
f 78/329/99 77/330/99 79/331/99 80/332/99
f 83/333/100 81/334/100 82/335/100 84/336/100
f 81/337/101 77/338/101 78/339/101 82/340/101
f 80/341/102 79/342/102 83/343/102 84/344/102
f 79/345/103 77/346/103 81/347/103 83/348/103
f 82/349/104 78/350/104 80/351/104 84/352/104